{"title":"The.Conjuring.2013.1080p.BRRIP.x265.HEVC.10bit.DTS.5.1-ROIMEZ","uid":15372487,"size":4728864911,"categoryP":"video","categoryS":"movies","magnet":"?xt=urn:btih:2d27c52fa45fcd640143ddddbc544456d8a17d3d&amp;dn=The.Conjuring.2013.1080p.BRRIP.x265.HEVC.10bit.DTS.5.1-ROIMEZ&amp;tr=udp%3A%2F%2Ftracker.leechers-paradise.org%3A6969&amp;tr=udp%3A%2F%2Fzer0day.ch%3A1337&amp;tr=udp%3A%2F%2Fopen.demonii.com%3A1337&amp;tr=udp%3A%2F%2Ftracker.coppersurfer.tk%3A6969&amp;tr=udp%3A%2F%2Fexodus.desync.com%3A6969","seeders":1,"leechers":0,"uploader":"Pirulo233","files":3,"time":1469153099,"description":"Nota: Mi 1er torrent en esta pagina, espero que sea del agrado de todos los que deseen bajarlo y que comenten del mismo. Sigan compartiendolo, gracias. Saludos.\r\n\r\nNote: My 1st torrent on this page, I hope you will please all who wish to lower it and discuss it. Keep sharing it, thanks.  \r\n\r\nComplete name: The.Conjuring.2013.1080p.BRRIP.x265.HEVC.10bit.DTS.5.1-ROIMEZ\r\nParanormal investigators Ed and Lorraine Warren work to help a family \r\nterrorized by a dark presence in their farmhouse.\r\n\r\nGenres: Horror, Mystery, Thriller  \r\nCast: Patrick Wilson, Vera Farmiga, Ron Livingston  \r\n\r\nRelease date: 19 July 2013  \r\nLanguage: English\r\nSubtitles: English &amp; Spanish\r\nSource: The.Conjuring.2013.Bluray.1080p.DTS-HD.x264-Grym \r\n\r\nGeneral\r\nFormat                      : Matroska\r\nFormat version              : Version 4 / Version 2\r\nFile size                   : 4.40 GiB\r\nDuration                    : 1h 51mn\r\nOverall bit rate            : 5 631 Kbps\r\nEncoded date                : UTC 2016-07-21 22:35:40\r\nWriting application         : mkvmerge v9.0.1 ('Obstacles') 64bit\r\nWriting library             : libebml v1.3.3 + libmatroska v1.4.4\r\n\r\nVideo\r\nID                          : 1\r\nFormat                      : HEVC\r\nFormat/Info                 : High Efficiency Video Coding\r\nFormat profile              : Main   @Main\r\nCodec ID                    : V_MPEGH/ISO/HEVC\r\nDuration                    : 1h 51mn\r\nEncoding settings[Bit rate] : 2 pass/4 120 Kbps\r\nWidth                       : 1 920 pixels\r\nHeight                      : 802 pixels\r\nDisplay aspect ratio        : 2.40:1\r\nFrame rate mode             : Constant\r\nFrame rate                  : 23.976 (24000/1001) fps\r\nOriginal frame rate         : 23.976 (23976/1000) fps\r\nColor space                 : YUV\r\nChroma subsampling          : 4:2:0\r\nBit depth                   : 10 bits\r\nBits/(Pixel*Frame)          : 0.112\r\nStream size                 : 3.22 GiB (73%)\r\nWriting library             : x265 1.9+140\r\nDefault                     : Yes\r\nForced                      : No\r\n\r\nAudio\r\nID                          : 2\r\nFormat                      : DTS\r\nFormat/Info                 : Digital Theater Systems\r\nMode                        : 16\r\nFormat settings, Endianness : Big\r\nCodec ID                    : A_DTS\r\nDuration                    : 1h 51mn\r\nBit rate mode               : Constant\r\nBit rate                    : 1 509 Kbps\r\nChannel(s)                  : 6 channels\r\nChannel positions           : Front: L C R, Side: L R, LFE\r\nSampling rate               : 48.0 KHz\r\nFrame rate                  : 93.750 fps (512 spf)\r\nBit depth                   : 24 bits\r\nCompression mode            : Lossy\r\nStream size                 : 1.18 GiB (27%)\r\nDefault                     : Yes\r\nForced                      : No","torrent":{"xt":"urn:btih:2d27c52fa45fcd640143ddddbc544456d8a17d3d","amp;dn":"The.Conjuring.2013.1080p.BRRIP.x265.HEVC.10bit.DTS.5.1-ROIMEZ","amp;tr":["udp%3A%2F%2Ftracker.leechers-paradise.org%3A6969","udp%3A%2F%2Fzer0day.ch%3A1337","udp%3A%2F%2Fopen.demonii.com%3A1337","udp%3A%2F%2Ftracker.coppersurfer.tk%3A6969","udp%3A%2F%2Fexodus.desync.com%3A6969"],"infoHash":"2d27c52fa45fcd640143ddddbc544456d8a17d3d","infoHashBuffer":{"type":"Buffer","data":[45,39,197,47,164,95,205,100,1,67,221,221,188,84,68,86,216,161,125,61]},"announce":[],"urlList":[]}}